PathFileType	4	(X/Y/Z)	 2.8Hzlow3min.trc
DataRate	CameraRate	NumFrames	NumMarkers	Units	OrigDataRate	OrigDataStartFrame	OrigNumFrames
200	200	8	35	m	200	751	1000
Frame#	Time	C7			LSH			RSH			MAN			RASI			LASI			HIPR			HIPL			RPSI			LPSI			COX			RTHI1			RTHI2			RTHI3			RTHI4			RSHA1			RSHA2			RSHA3			RSHA4			RHEEL			RMET5			RMET1			RTOE			LTHI1			LTHI2			LTHI3			LTHI4			LSHA1			LSHA2			LSHA3			LSHA4			LHEEL			LMET5			LMET1			LTOE			
		X1	Y1	Z1	X2	Y2	Z2	X3	Y3	Z3	X4	Y4	Z4	X5	Y5	Z5	X6	Y6	Z6	X7	Y7	Z7	X8	Y8	Z8	X9	Y9	Z9	X10	Y10	Z10	X11	Y11	Z11	X12	Y12	Z12	X13	Y13	Z13	X14	Y14	Z14	X15	Y15	Z15	X16	Y16	Z16	X17	Y17	Z17	X18	Y18	Z18	X19	Y19	Z19	X20	Y20	Z20	X21	Y21	Z21	X22	Y22	Z22	X23	Y23	Z23	X24	Y24	Z24	X25	Y25	Z25	X26	Y26	Z26	X27	Y27	Z27	X28	Y28	Z28	X29	Y29	Z29	X30	Y30	Z30	X31	Y31	Z31	X32	Y32	Z32	X33	Y33	Z33	X34	Y34	Z34	X35	Y35	Z35	
751	3.7550	-0.303580	1.336467	-0.573531	-0.258048	1.304390	-0.747988	-0.271118	1.312774	-0.396033	-0.186830	1.295678	-0.569507	-0.176931	0.902750	-0.475996	-0.162021	0.910666	-0.657451	-0.247422	0.943641	-0.434411	-0.226032	0.952990	-0.702705	-0.321937	0.933511	-0.512981	-0.314071	0.938100	-0.625765	-0.321135	0.949189	-0.572290	-0.257772	0.726104	-0.399994	-0.241502	0.668413	-0.397688	-0.179693	0.680975	-0.413425	-0.188023	0.741766	-0.417525	-0.285601	0.303355	-0.379998	-0.310587	0.267304	-0.378242	-0.264147	0.240142	-0.404508	-0.244740	0.275564	-0.408832	-0.441832	0.073700	-0.417960	-0.287343	0.029243	-0.364414	-0.258887	0.032131	-0.444912	-0.232392	0.024320	-0.436269	-0.228871	0.700003	-0.746690	-0.212893	0.640592	-0.742573	-0.153625	0.651998	-0.717836	-0.162205	0.711172	-0.719861	-0.319635	0.284076	-0.745670	-0.341051	0.249708	-0.744771	-0.284728	0.222647	-0.735786	-0.269831	0.264294	-0.738819	-0.433801	0.083777	-0.698914	-0.283080	0.026385	-0.758578	-0.251468	0.030977	-0.680888	-0.227699	0.022841	-0.687703	
752	3.7600	-0.303750	1.333590	-0.573543	-0.258303	1.300756	-0.748193	-0.271698	1.309575	-0.395773	-0.186698	1.292547	-0.569371	-0.176822	0.899911	-0.475605	-0.162392	0.908534	-0.657614	-0.247922	0.939527	-0.433681	-0.227204	0.950040	-0.702994	-0.322516	0.930196	-0.512256	-0.314890	0.935500	-0.625133	-0.321417	0.946583	-0.571504	-0.257606	0.723225	-0.400140	-0.241064	0.665622	-0.398192	-0.179293	0.678555	-0.413786	-0.187896	0.739329	-0.417499	-0.284877	0.301291	-0.381011	-0.310094	0.265308	-0.379097	-0.263713	0.237885	-0.405765	-0.244153	0.273199	-0.410095	-0.442421	0.072048	-0.418853	-0.287554	0.029241	-0.364681	-0.258855	0.032031	-0.445268	-0.232290	0.024285	-0.436358	-0.228567	0.698126	-0.746387	-0.212367	0.638781	-0.742158	-0.153183	0.650446	-0.717420	-0.161996	0.709552	-0.719557	-0.318370	0.282691	-0.745377	-0.339972	0.248454	-0.744599	-0.283875	0.221092	-0.735150	-0.268726	0.262663	-0.738125	-0.434141	0.082896	-0.699118	-0.283081	0.026337	-0.758577	-0.251568	0.030921	-0.680740	-0.227724	0.022822	-0.687663	
753	3.7650	-0.303850	1.331211	-0.573523	-0.258453	1.297566	-0.748395	-0.272250	1.306757	-0.395477	-0.186553	1.289861	-0.569212	-0.176731	0.897579	-0.475297	-0.162763	0.907005	-0.657765	-0.248357	0.936080	-0.432995	-0.228411	0.947865	-0.703164	-0.322914	0.927634	-0.511523	-0.315593	0.933592	-0.624426	-0.321675	0.944612	-0.570683	-0.257475	0.720956	-0.400423	-0.240740	0.663416	-0.398730	-0.178979	0.676631	-0.414140	-0.187778	0.737392	-0.417564	-0.284292	0.299545	-0.382071	-0.309626	0.263687	-0.380057	-0.263268	0.236052	-0.406978	-0.243577	0.271262	-0.411301	-0.442836	0.070782	-0.419967	-0.287764	0.029285	-0.365046	-0.258741	0.031933	-0.445621	-0.232143	0.024249	-0.436445	-0.228308	0.696606	-0.746079	-0.211846	0.637343	-0.741737	-0.152756	0.649306	-0.717015	-0.161836	0.708334	-0.719264	-0.316950	0.281711	-0.745159	-0.338732	0.247615	-0.744511	-0.282861	0.219971	-0.734604	-0.267465	0.261460	-0.737511	-0.434270	0.082468	-0.699440	-0.283011	0.026318	-0.758573	-0.251631	0.030873	-0.680620	-0.227733	0.022804	-0.687616	
754	3.7700	-0.303881	1.329348	-0.573479	-0.258495	1.294895	-0.748565	-0.272743	1.304393	-0.395174	-0.186376	1.287641	-0.569034	-0.176640	0.895790	-0.475090	-0.163121	0.906053	-0.657886	-0.248657	0.933444	-0.432379	-0.229543	0.946520	-0.703198	-0.323131	0.925814	-0.510824	-0.316170	0.932312	-0.623692	-0.321915	0.943221	-0.569875	-0.257359	0.719234	-0.400814	-0.240481	0.661737	-0.399270	-0.178710	0.675166	-0.414475	-0.187656	0.735916	-0.417715	-0.283798	0.298096	-0.383163	-0.309212	0.262456	-0.381086	-0.262829	0.234652	-0.408105	-0.243027	0.269768	-0.412398	-0.443071	0.069883	-0.421259	-0.287975	0.029361	-0.365490	-0.258562	0.031834	-0.445963	-0.231962	0.024212	-0.436537	-0.228072	0.695429	-0.745798	-0.211324	0.636256	-0.741331	-0.152325	0.648540	-0.716641	-0.161686	0.707499	-0.719013	-0.315430	0.281141	-0.745022	-0.337379	0.247180	-0.744500	-0.281734	0.219281	-0.734175	-0.266097	0.260680	-0.736997	-0.434198	0.082484	-0.699867	-0.282874	0.026322	-0.758572	-0.251656	0.030833	-0.680534	-0.227727	0.022787	-0.687564	
755	3.7750	-0.303842	1.328000	-0.573419	-0.258417	1.292796	-0.748687	-0.273153	1.302545	-0.394890	-0.186162	1.285895	-0.568838	-0.176526	0.894566	-0.474985	-0.163448	0.905634	-0.657961	-0.248764	0.931701	-0.431843	-0.230526	0.945980	-0.703071	-0.323193	0.924680	-0.510189	-0.316619	0.931576	-0.622986	-0.322122	0.942345	-0.569124	-0.257235	0.718005	-0.401264	-0.240229	0.660546	-0.399766	-0.178449	0.674126	-0.414782	-0.187522	0.734867	-0.417931	-0.283412	0.296945	-0.384248	-0.308857	0.261614	-0.382144	-0.262403	0.233677	-0.409114	-0.242510	0.268730	-0.413348	-0.443142	0.069374	-0.422653	-0.288182	0.029453	-0.365993	-0.258331	0.031734	-0.446291	-0.231758	0.024170	-0.436635	-0.227829	0.694634	-0.745566	-0.210793	0.635554	-0.740966	-0.151880	0.648166	-0.716305	-0.161522	0.707056	-0.718809	-0.313856	0.280982	-0.744962	-0.335964	0.247135	-0.744557	-0.280538	0.219019	-0.733878	-0.264669	0.260320	-0.736597	-0.433934	0.082923	-0.700384	-0.282676	0.026347	-0.758576	-0.251640	0.030801	-0.680479	-0.227701	0.022769	-0.687506	
756	3.7800	-0.303739	1.327186	-0.573355	-0.258225	1.291314	-0.748753	-0.273468	1.301256	-0.394644	-0.185912	1.284638	-0.568627	-0.176371	0.893922	-0.474972	-0.163733	0.905688	-0.657987	-0.248647	0.930876	-0.431394	-0.231295	0.946153	-0.702803	-0.323139	0.924156	-0.509641	-0.316947	0.931306	-0.622352	-0.322306	0.941926	-0.568467	-0.257091	0.717202	-0.401720	-0.239961	0.659781	-0.400200	-0.178166	0.673522	-0.415046	-0.187378	0.734251	-0.418172	-0.283117	0.296219	-0.385285	-0.308571	0.261185	-0.383170	-0.261993	0.233160	-0.409968	-0.242033	0.268162	-0.414135	-0.443071	0.069260	-0.424068	-0.288369	0.029551	-0.366530	-0.258062	0.031634	-0.446599	-0.231540	0.024121	-0.436745	-0.227561	0.694262	-0.745399	-0.210242	0.635275	-0.740668	-0.151398	0.648219	-0.716020	-0.161325	0.707045	-0.718652	-0.312262	0.281236	-0.744976	-0.334523	0.247486	-0.744685	-0.279292	0.219166	-0.733705	-0.263221	0.260378	-0.736331	-0.433491	0.083745	-0.700975	-0.282418	0.026390	-0.758582	-0.251583	0.030777	-0.680452	-0.227655	0.022748	-0.687445	
757	3.7850	-0.303584	1.326906	-0.573299	-0.257925	1.290467	-0.748769	-0.273685	1.300548	-0.394440	-0.185632	1.283892	-0.568409	-0.176168	0.893845	-0.475030	-0.163958	0.906156	-0.657966	-0.248285	0.930916	-0.431052	-0.231833	0.946904	-0.702421	-0.323003	0.924160	-0.509188	-0.317164	0.931437	-0.621812	-0.322455	0.941910	-0.567935	-0.256931	0.716813	-0.402128	-0.239651	0.659432	-0.400557	-0.177853	0.673354	-0.415264	-0.187222	0.734057	-0.418398	-0.282863	0.295965	-0.386212	-0.308341	0.261174	-0.384107	-0.261595	0.233081	-0.410657	-0.241591	0.268058	-0.414746	-0.442872	0.069547	-0.425469	-0.288529	0.029657	-0.367076	-0.257767	0.031535	-0.446885	-0.231315	0.024073	-0.436864	-0.227263	0.694336	-0.745303	-0.209657	0.635441	-0.740458	-0.150871	0.648718	-0.715803	-0.161090	0.707487	-0.718544	-0.310706	0.281877	-0.745077	-0.333098	0.248206	-0.744878	-0.278033	0.219715	-0.733662	-0.261787	0.260842	-0.736196	-0.432889	0.084893	-0.701620	-0.282102	0.026450	-0.758589	-0.251488	0.030762	-0.680451	-0.227590	0.022726	-0.687380	
758	3.7900	-0.303385	1.327158	-0.573256	-0.257524	1.290246	-0.748747	-0.273813	1.300425	-0.394276	-0.185330	1.283678	-0.568188	-0.175917	0.894307	-0.475132	-0.164107	0.906996	-0.657906	-0.247720	0.931704	-0.430824	-0.232158	0.948090	-0.701953	-0.322820	0.924625	-0.508822	-0.317279	0.931938	-0.621372	-0.322549	0.942303	-0.567515	-0.256746	0.716849	-0.402455	-0.239306	0.659519	-0.400828	-0.177519	0.673622	-0.415417	-0.187055	0.734294	-0.418570	-0.282648	0.296190	-0.386988	-0.308155	0.261585	-0.384915	-0.261210	0.233432	-0.411171	-0.241182	0.268400	-0.415169	-0.442549	0.070210	-0.426796	-0.288650	0.029772	-0.367616	-0.257466	0.031445	-0.447137	-0.231090	0.024021	-0.436990	-0.226930	0.694861	-0.745274	-0.209041	0.636051	-0.740346	-0.150298	0.649657	-0.715666	-0.160814	0.708369	-0.718483	-0.309225	0.282888	-0.745268	-0.331729	0.249273	-0.745143	-0.276802	0.220644	-0.733744	-0.260406	0.261690	-0.736195	-0.432149	0.086320	-0.702305	-0.281740	0.026529	-0.758595	-0.251363	0.030756	-0.680475	-0.227509	0.022701	-0.687314	
